<svg width="75" height="75" viewBox="0 0 75 75" fill="none" xmlns="http://www.w3.org/2000/svg">
<circle cx="37.5" cy="37.5" r="37.5" fill="#27AE60"/>
<path d="M59 47.0854V51.9146H56.5439C56.2536 53.246 55.7295 54.49 55.0155 55.6009L56.7534 57.3388L53.3384 60.7534L51.6005 59.0155C50.49 59.7295 49.246 60.2537 47.9146 60.5443V63H43.085V60.5474C41.752 60.2584 40.506 59.735 39.3936 59.0211L37.6612 60.7534L34.2466 57.3388L35.9758 55.6092C35.2591 54.4963 34.733 53.2496 34.4415 51.9146H32V47.0854H34.4388C34.7286 45.7485 35.254 44.4997 35.9703 43.3853L34.2466 41.6616L37.6612 38.2466L39.3849 39.9703C40.4997 39.254 41.7485 38.7286 43.085 38.4388V36H47.9146V38.4419C49.2492 38.733 50.4963 39.2591 51.6092 39.9758L53.3384 38.2466L56.7534 41.6616L55.0211 43.3936C55.7346 44.506 56.258 45.752 56.547 47.0854H59Z" fill="black" fill-opacity="0.37"/>
<path d="M58.0629 46.2533V50.7471H55.7788C55.5089 51.9861 55.0215 53.1437 54.3576 54.1774L55.9737 55.7946L52.7979 58.972L51.1818 57.3549C50.1491 58.0193 48.9923 58.507 47.7541 58.7775V61.0626H43.2629V58.7804C42.0233 58.5114 40.8646 58.0244 39.8301 57.36L38.2192 58.972L35.0438 55.7946L36.6518 54.1851C35.9853 53.1495 35.496 51.9893 35.225 50.7471H32.9545V46.2533H35.2225C35.492 45.0092 35.9805 43.8472 36.6467 42.8102L35.0438 41.2062L38.2192 38.0284L39.822 39.6323C40.8588 38.9658 42.02 38.4769 43.2629 38.2072V35.9378H47.7541V38.2101C48.9952 38.4809 50.155 38.9705 51.1899 39.6375L52.7979 38.0284L55.9737 41.2062L54.3627 42.8179C55.0263 43.8531 55.513 45.0125 55.7818 46.2533H58.0629Z" fill="#F2C94C"/>
<path d="M51.1298 48.5C51.1298 51.6068 48.6132 54.125 45.5085 54.125C42.4038 54.125 39.8872 51.6068 39.8872 48.5C39.8872 45.3936 42.4038 42.875 45.5085 42.875C48.6132 42.875 51.1298 45.3936 51.1298 48.5Z" fill="#27AE60"/>
<path d="M48.3192 49.5C48.3192 47.9492 47.0583 46.6875 45.5085 46.6875C43.9587 46.6875 42.6979 47.9492 42.6979 49.5C42.6979 51.0508 43.9587 52.3125 45.5085 52.3125C47.0583 52.3125 48.3192 51.0508 48.3192 49.5ZM44.5718 49.5C44.5718 48.9833 44.9918 48.5626 45.5085 48.5626C46.0252 48.5626 46.4453 48.9833 46.4453 49.5C46.4453 50.0171 46.0252 50.4378 45.5085 50.4378C44.9918 50.4378 44.5718 50.0171 44.5718 49.5Z" fill="black" fill-opacity="0.37"/>
<path d="M47.3824 48.5C47.3824 49.5356 46.5434 50.3751 45.5085 50.3751C44.4736 50.3751 43.6346 49.5356 43.6346 48.5C43.6346 47.4648 44.4736 46.6253 45.5085 46.6253C46.5434 46.6253 47.3824 47.4648 47.3824 48.5Z" fill="#F2C94C"/>
<path d="M38 34.0853V38.9147H35.5443C35.2537 40.2462 34.7296 41.4901 34.0156 42.6006L35.7534 44.3384L32.3384 47.7534L30.601 46.0156C29.4901 46.7296 28.2462 47.2537 26.9147 47.5439V50H22.0853V47.5471C20.7523 47.258 19.5063 46.7347 18.3939 46.0211L16.6616 47.7534L13.2466 44.3384L14.9761 42.6093C14.2594 41.496 13.7333 40.2493 13.4419 38.9143H11V34.0853H13.4392C13.7286 32.7487 14.2543 31.4996 14.9706 30.3852L13.2466 28.6616L16.6616 25.2466L18.3852 26.9706C19.5 26.2539 20.7487 25.7286 22.0853 25.4388V23H26.9147V25.4419C28.2493 25.7329 29.4964 26.2594 30.6093 26.9761L32.3384 25.2466L35.7534 28.6616L34.0211 30.3935C34.7347 31.5059 35.258 32.7519 35.5471 34.0853H38Z" fill="black" fill-opacity="0.37"/>
<path d="M37.0454 32.7299V37.224H34.7618C34.4915 38.463 34.0041 39.6206 33.3401 40.654L34.9562 42.2711L31.7805 45.449L30.1648 43.8318C29.1317 44.4962 27.9748 44.9839 26.7367 45.254V47.5396H22.2455V45.2569C21.0059 44.988 19.8472 44.501 18.8127 43.837L17.2017 45.449L14.026 42.2711L15.6344 40.662C14.9679 39.6261 14.4786 38.4659 14.2076 37.2237H11.9368V32.7299H14.2051C14.4742 31.4862 14.9631 30.3238 15.6292 29.2867L14.026 27.6828L17.2017 24.505L18.8046 26.1093C19.8414 25.4423 21.0026 24.9535 22.2455 24.6838V22.4144H26.7367V24.6867C27.9778 24.9575 29.1375 25.4475 30.1724 26.1144L31.7805 24.505L34.9562 27.6828L33.3453 29.2944C34.0088 30.3297 34.4955 31.4891 34.7643 32.7299H37.0454Z" fill="#2F80ED"/>
<path d="M30.1124 34.977C30.1124 38.0837 27.5958 40.602 24.4911 40.602C21.3864 40.602 18.8698 38.0837 18.8698 34.977C18.8698 31.8702 21.3864 29.352 24.4911 29.352C27.5958 29.352 30.1124 31.8702 30.1124 34.977Z" fill="#27AE60"/>
<path d="M21.6805 35.977C21.6805 37.5278 22.9413 38.7895 24.4911 38.7895C26.0409 38.7895 27.3018 37.5278 27.3018 35.977C27.3018 34.4262 26.0409 33.1645 24.4911 33.1645C22.9413 33.1645 21.6805 34.4262 21.6805 35.977ZM25.4279 35.977C25.4279 36.494 25.0078 36.9143 24.4911 36.9143C23.9744 36.9143 23.5543 36.494 23.5543 35.977C23.5543 35.4599 23.9744 35.0396 24.4911 35.0396C25.0078 35.0396 25.4279 35.4599 25.4279 35.977Z" fill="black" fill-opacity="0.37"/>
<path d="M26.365 34.977C26.365 36.0125 25.526 36.8521 24.4911 36.8521C23.4562 36.8521 22.6172 36.0125 22.6172 34.977C22.6172 33.9414 23.4562 33.1018 24.4911 33.1018C25.526 33.1018 26.365 33.9414 26.365 34.977Z" fill="#2F80ED"/>
<path d="M48.4998 17.2053C47.9259 17.2053 47.3654 17.2653 46.8245 17.3789L45.4677 15L41.0321 17.5921L42.3898 19.9726C41.6463 20.8142 41.0699 21.8105 40.7133 22.9079H38V28.0921H40.7133C41.0699 29.1895 41.6463 30.1858 42.3898 31.0274L41.0321 33.4079L45.4677 36L46.8245 33.6211C47.3654 33.7347 47.9259 33.7951 48.4998 33.7951C49.0741 33.7951 49.6342 33.7351 50.1751 33.6211L51.5319 36L55.9675 33.4079L54.6098 31.0274C55.3537 30.1858 55.9301 29.1895 56.2863 28.0921H59V22.9079H56.2863C55.9301 21.8105 55.3537 20.8142 54.6098 19.9726L55.9675 17.5921L51.5319 15L50.1751 17.3789C49.6342 17.2653 49.0741 17.2053 48.4998 17.2053Z" fill="black" fill-opacity="0.37"/>
<path d="M48.4019 16.9436C47.8739 16.9436 47.3582 16.9982 46.8606 17.1016L45.6122 14.9377L41.5311 17.2954L42.7803 19.4608C42.0962 20.2263 41.5659 21.1325 41.2378 22.1307H38.7414V26.8462H41.2378C41.5659 27.8444 42.0962 28.7506 42.7803 29.5161L41.5311 31.6815L45.6122 34.0392L46.8606 31.8753C47.3582 31.9787 47.8739 32.0336 48.4019 32.0336C48.9304 32.0336 49.4456 31.979 49.9433 31.8753L51.1917 34.0392L55.2727 31.6815L54.0236 29.5161C54.708 28.7506 55.2383 27.8444 55.5661 26.8462H58.0629V22.1307H55.5661C55.2383 21.1325 54.708 20.2263 54.0236 19.4608L55.2727 17.2954L51.1917 14.9377L49.9433 17.1016C49.4456 16.9982 48.9304 16.9436 48.4019 16.9436Z" fill="white"/>
<path d="M48.4019 16.9436C47.8739 16.9436 47.3582 16.9982 46.8606 17.1016L45.6122 14.9377L41.5311 17.2954L42.7803 19.4608C42.0962 20.2263 41.5659 21.1325 41.2378 22.1307H38.7414V26.8462H41.2378C41.5659 27.8444 42.0962 28.7506 42.7803 29.5161L41.5311 31.6815L45.6122 34.0392L46.8606 31.8753C47.3582 31.9787 47.8739 32.0336 48.4019 32.0336C48.9304 32.0336 49.4456 31.979 49.9433 31.8753L51.1917 34.0392L55.2727 31.6815L54.0236 29.5161C54.708 28.7506 55.2383 27.8444 55.5661 26.8462H58.0629V22.1307H55.5661C55.2383 21.1325 54.708 20.2263 54.0236 19.4608L55.2727 17.2954L51.1917 14.9377L49.9433 17.1016C49.4456 16.9982 48.9304 16.9436 48.4019 16.9436Z" fill="#EB5757"/>
<path d="M51.7872 24.4888C51.7872 26.3596 50.2714 27.8759 48.4019 27.8759C46.5324 27.8759 45.0167 26.3596 45.0167 24.4888C45.0167 22.6177 46.5324 21.1014 48.4019 21.1014C50.2714 21.1014 51.7872 22.6177 51.7872 24.4888Z" fill="#27AE60"/>
<path d="M58.0629 45.316H56.5116C56.2765 44.4973 55.9517 43.7109 55.5404 42.9652L56.6361 41.8691C56.8115 41.6932 56.9104 41.4547 56.9104 41.2062C56.9104 40.9574 56.8115 40.7189 56.6361 40.5433L53.4604 37.3655C53.0945 36.9994 52.5016 36.9994 52.1354 37.3655L51.0434 38.4582C50.2971 38.0445 49.5101 37.7176 48.6909 37.4809V35.9378C48.6909 35.42 48.2712 35.0004 47.7541 35.0004H43.2629C42.7455 35.0004 42.3262 35.42 42.3262 35.9378V37.4772C41.5051 37.7132 40.7167 38.0397 39.9689 38.4535L38.8816 37.3655C38.7058 37.1896 38.4678 37.091 38.2192 37.091C38.1386 37.091 38.0591 37.1024 37.9822 37.1225V32.7303C37.9822 32.2125 37.5629 31.7925 37.0455 31.7925H35.4942C35.2591 30.9742 34.9343 30.1878 34.523 29.4421L35.6187 28.3457C35.9846 27.9796 35.9846 27.386 35.6187 27.0199L32.4429 23.8424C32.0771 23.4763 31.4842 23.4763 31.118 23.8424L30.026 24.9352C29.2796 24.5214 28.4927 24.1942 27.6735 23.9578V22.4144C27.6735 21.8966 27.2538 21.477 26.7367 21.477H22.2455C21.7284 21.477 21.3088 21.8966 21.3088 22.4144V23.9538C20.4877 24.1898 19.6993 24.5167 18.9515 24.9304L17.8642 23.8424C17.6884 23.6665 17.4504 23.5676 17.2017 23.5676C16.9534 23.5676 16.715 23.6665 16.5393 23.8424L13.3635 27.0199C12.9977 27.386 12.9977 27.9796 13.3635 28.3457L14.4508 29.4337C14.0377 30.182 13.711 30.9713 13.4752 31.7925H11.9368C11.4197 31.7925 11 32.2125 11 32.7303V37.224C11 37.7418 11.4197 38.1614 11.9368 38.1614H13.4789C13.7154 38.9812 14.0421 39.769 14.4555 40.5155L13.3635 41.6082C13.1881 41.7841 13.0892 42.0227 13.0892 42.2711C13.0892 42.5199 13.1881 42.7581 13.3635 42.934L16.5393 46.1119C16.9051 46.478 17.4984 46.478 17.8642 46.1119L18.9599 45.0155C19.7051 45.427 20.491 45.752 21.3088 45.9873V47.5396C21.3088 48.0574 21.7284 48.4769 22.2455 48.4769H26.7367C27.2541 48.4769 27.6735 48.0574 27.6735 47.5396V45.9836C28.4897 45.7476 29.2742 45.4222 30.0179 45.0107L31.118 46.1119C31.2938 46.2874 31.5322 46.3863 31.7805 46.3863C31.8614 46.3863 31.9405 46.375 32.0174 46.3548V50.7471C32.0174 51.2649 32.4371 51.6848 32.9542 51.6848H34.4963C34.7328 52.5046 35.0595 53.2921 35.473 54.0389L34.3809 55.1317C34.2055 55.3072 34.1066 55.5457 34.1066 55.7946C34.1066 56.043 34.2055 56.2816 34.3809 56.4575L37.5567 59.6349C37.9225 60.001 38.5158 60.001 38.8816 59.6349L39.9773 58.5385C40.7226 58.95 41.5084 59.2751 42.3262 59.5104V61.0626C42.3262 61.5804 42.7458 62 43.2629 62H47.7541C48.2716 62 48.6909 61.5804 48.6909 61.0626V59.5067C49.5072 59.2711 50.2916 58.9456 51.0353 58.5341L52.1354 59.6349C52.5013 60.001 53.0945 60.0014 53.4604 59.6349L56.6361 56.4575C56.8119 56.2816 56.9104 56.043 56.9104 55.7946C56.9104 55.5457 56.8119 55.3072 56.6361 55.1317L55.536 54.0305C55.9473 53.2862 56.2721 52.5013 56.508 51.6848H58.0629C58.5803 51.6848 59 51.2649 59 50.7471V46.2533C58.9996 45.7355 58.58 45.316 58.0629 45.316ZM35.3221 43.2309C34.9771 43.8971 34.6999 44.594 34.4926 45.316H33.2384L35.3221 43.2309ZM34.6347 40.289C34.991 39.61 35.2774 38.8987 35.4902 38.1614H36.7613L34.6347 40.289ZM30.8272 43.1689C30.5152 42.8571 30.0289 42.8047 29.6579 43.0432C28.6996 43.6596 27.6493 44.0953 26.5367 44.3383C26.1065 44.4321 25.7996 44.8136 25.7996 45.254V46.6018H23.1826V45.257C23.1826 44.8157 22.875 44.4343 22.444 44.3408C21.33 44.099 20.2782 43.664 19.3184 43.048C18.9478 42.8098 18.4615 42.8622 18.1498 43.1741L17.2017 44.1232L15.3509 42.2711L16.2968 41.325C16.6085 41.0131 16.6608 40.5254 16.4221 40.1545C15.8032 39.1933 15.3663 38.1402 15.1231 37.0243C15.029 36.5937 14.6482 36.2867 14.2076 36.2867H12.8739V33.6676H14.2051C14.646 33.6676 15.0272 33.3598 15.1206 32.9289C15.3626 31.8116 15.7988 30.7566 16.4173 29.7939C16.6554 29.4227 16.603 28.9361 16.2913 28.6242L15.3509 27.6828L17.2017 25.8311L18.1422 26.7722C18.4538 27.084 18.9405 27.1361 19.3115 26.8979C20.2735 26.2789 21.3274 25.8425 22.444 25.6003C22.875 25.5068 23.1826 25.1254 23.1826 24.6838V23.3521H25.7996V24.6867C25.7996 25.1276 26.1065 25.509 26.5367 25.6028C27.6518 25.8462 28.7043 26.2833 29.6653 26.9026C30.0359 27.1412 30.5229 27.0892 30.8349 26.7773L31.7805 25.8311L33.6313 27.6828L32.6828 28.6319C32.3715 28.9434 32.3188 29.43 32.5565 29.8009C33.1724 30.7617 33.6071 31.8138 33.8488 32.9285C33.9422 33.3598 34.3234 33.6676 34.7643 33.6676H36.1083V36.2863H34.7614C34.3212 36.2863 33.94 36.5934 33.8463 37.0243C33.6035 38.1376 33.168 39.1882 32.5521 40.1472C32.3137 40.518 32.366 41.0054 32.6777 41.3173L33.6313 42.2711L31.7805 44.1232L30.8272 43.1689ZM57.1257 49.8097H55.7788C55.3386 49.8097 54.9574 50.1168 54.8637 50.5474C54.6209 51.6606 54.1855 52.7113 53.5695 53.6706C53.3311 54.0415 53.3835 54.5285 53.6951 54.8403L54.6487 55.7946L52.7979 57.6462L51.8443 56.6924C51.5326 56.3805 51.0463 56.3281 50.6754 56.5667C49.7166 57.183 48.6667 57.6187 47.5542 57.8613C47.1239 57.9555 46.817 58.3366 46.817 58.7775V60.1252H44.1997V58.7804C44.1997 58.3392 43.8924 57.9577 43.4614 57.8643C42.3474 57.6224 41.2957 57.1874 40.3358 56.5711C39.9652 56.3332 39.4789 56.3856 39.1673 56.6975L38.2192 57.6462L36.3683 55.7946L37.3139 54.8484C37.6259 54.5362 37.6779 54.0488 37.4391 53.6776C36.8206 52.7164 36.3837 51.6632 36.1406 50.5474C36.0464 50.1168 35.6656 49.8097 35.225 49.8097H33.8909V47.1907H35.2221C35.663 47.1907 36.0442 46.8833 36.1376 46.4519C36.3797 45.3346 36.8162 44.2796 37.4344 43.317C37.6728 42.9461 37.6204 42.4587 37.3088 42.1473L36.3683 41.2059L38.2192 39.3542L39.1596 40.2952C39.4712 40.6071 39.9579 40.6595 40.3285 40.4209C41.2905 39.8024 42.3449 39.3656 43.4614 39.1233C43.8924 39.0299 44.1997 38.6484 44.1997 38.2072V36.8752H46.817V38.2101C46.817 38.651 47.1239 39.0321 47.5542 39.1259C48.6693 39.3696 49.7217 39.8068 50.6823 40.4257C51.0529 40.6646 51.5403 40.6126 51.852 40.3004L52.7979 39.3542L54.6483 41.2062L53.7002 42.155C53.389 42.4664 53.3362 42.9531 53.5739 43.3239C54.1899 44.2848 54.6245 45.3372 54.8662 46.4519C54.9596 46.8833 55.3408 47.1907 55.7818 47.1907H57.1257V49.8097Z" fill="#000022"/>
<path d="M41.5337 45.4603C41.7736 45.4603 42.0131 45.3687 42.1962 45.1855L42.2075 45.1741C42.5752 44.8099 42.5778 44.2162 42.2137 43.8483C41.8494 43.4804 41.2561 43.4778 40.8888 43.8421L40.8709 43.8597C40.505 44.2258 40.505 44.8194 40.8709 45.1859C41.054 45.3687 41.2938 45.4603 41.5337 45.4603L41.5337 45.4603Z" fill="#000022"/>
<path d="M43.9115 42.1344C43.4094 42.2601 43.1044 42.7691 43.23 43.2715C43.3556 43.7739 43.8646 44.0788 44.3659 43.9535C45.9806 43.5489 47.6461 44.0099 48.8209 45.1855C50.6475 47.0133 50.6475 49.9871 48.8209 51.8146C47.9361 52.7003 46.7598 53.1876 45.5085 53.1876C44.2575 53.1876 43.0809 52.7003 42.1962 51.8146C41.0942 50.7119 40.6134 49.1376 40.91 47.6041C41.0085 47.0958 40.6764 46.6037 40.1681 46.5054C39.6602 46.4072 39.1687 46.7392 39.0706 47.2475C38.6549 49.3938 39.3284 51.5965 40.8712 53.1404C42.1101 54.3801 43.7569 55.0628 45.5085 55.0628C47.2605 55.0628 48.9073 54.3801 50.1458 53.1404C52.703 50.5818 52.703 46.4182 50.1458 43.8597C48.5257 42.2385 46.1369 41.5774 43.9115 42.1344Z" fill="#000022"/>
<path d="M48.3192 48.5C48.3192 46.9492 47.0583 45.6875 45.5085 45.6875C43.9587 45.6875 42.6979 46.9492 42.6979 48.5C42.6979 50.0508 43.9587 51.3125 45.5085 51.3125C47.0583 51.3125 48.3192 50.0508 48.3192 48.5ZM44.5718 48.5C44.5718 47.9833 44.9918 47.5626 45.5085 47.5626C46.0252 47.5626 46.4453 47.9833 46.4453 48.5C46.4453 49.0171 46.0252 49.4378 45.5085 49.4378C44.9918 49.4378 44.5718 49.0171 44.5718 48.5Z" fill="#000022"/>
<path d="M27.8229 31.6819C28.0049 31.8625 28.2422 31.9527 28.4795 31.9527C28.7208 31.9527 28.9621 31.8596 29.1456 31.6742C29.51 31.3066 29.5056 30.7108 29.1383 30.3461L29.1258 30.3341C28.7582 29.9694 28.1671 29.9738 27.8031 30.3414C27.4384 30.7089 27.4431 31.3048 27.8104 31.6694L27.8229 31.6819Z" fill="#000022"/>
<path d="M29.9619 33.3763C29.4481 33.4375 29.0812 33.904 29.1423 34.4181C29.3137 35.8568 28.8259 37.2687 27.8035 38.2915C25.9772 40.119 23.0054 40.1193 21.1788 38.2915C20.294 37.4061 19.8066 36.2291 19.8066 34.977C19.8066 33.7248 20.294 32.5478 21.1788 31.6624C22.2378 30.6027 23.7539 30.1116 25.236 30.3487C25.7468 30.4304 26.2273 30.0823 26.309 29.5711C26.3906 29.0599 26.0427 28.5791 25.5319 28.4971C23.4595 28.1654 21.3366 28.8529 19.8538 30.3366C18.6149 31.576 17.9331 33.2242 17.9331 34.977C17.9331 36.7301 18.6149 38.378 19.8538 39.6173C21.1322 40.8969 22.8113 41.5364 24.4911 41.5364C26.1702 41.536 27.85 40.8966 29.1284 39.6173C30.5595 38.1852 31.2429 36.2093 31.003 34.1961C30.9415 33.6819 30.4738 33.3155 29.9619 33.3763Z" fill="#000022"/>
<path d="M21.6805 34.977C21.6805 36.5278 22.9413 37.7895 24.4911 37.7895C26.0409 37.7895 27.3018 36.5278 27.3018 34.977C27.3018 33.4262 26.0409 32.1645 24.4911 32.1645C22.9413 32.1645 21.6805 33.4262 21.6805 34.977ZM25.4279 34.977C25.4279 35.494 25.0078 35.9143 24.4911 35.9143C23.9744 35.9143 23.5543 35.494 23.5543 34.977C23.5543 34.4599 23.9744 34.0396 24.4911 34.0396C25.0078 34.0396 25.4279 34.4599 25.4279 34.977Z" fill="#000022"/>
<path d="M58.0629 21.1934H56.2154C55.9414 20.5418 55.5884 19.9309 55.1596 19.367L56.0842 17.7645C56.3432 17.316 56.1894 16.7425 55.7415 16.4838L51.6601 14.126C51.4448 14.0014 51.1891 13.9677 50.9493 14.0322C50.709 14.0967 50.5047 14.2535 50.3802 14.469L49.4559 16.0715C48.7575 15.9847 48.046 15.9847 47.348 16.0715L46.4237 14.469C46.1648 14.0205 45.5917 13.8669 45.1438 14.1257L41.0624 16.4838C40.8474 16.608 40.6903 16.8128 40.6259 17.0529C40.5618 17.2932 40.5955 17.549 40.7196 17.7641L41.6443 19.3666C41.2158 19.9309 40.8628 20.5418 40.5889 21.193H38.741C38.2239 21.193 37.8042 21.6129 37.8042 22.1307V26.8462C37.8042 27.364 38.2239 27.7839 38.741 27.7839H40.5889C40.8628 28.4351 41.2158 29.046 41.6443 29.6103L40.7196 31.2128C40.5955 31.4279 40.5618 31.6841 40.6259 31.9241C40.6903 32.1641 40.8474 32.3689 41.0624 32.4932L45.1438 34.8513C45.2914 34.9363 45.4525 34.977 45.6114 34.977C45.9352 34.977 46.2501 34.8088 46.4237 34.5079L47.348 32.9058C48.046 32.9923 48.7579 32.9923 49.4559 32.9058L50.3806 34.5079C50.5047 34.7234 50.7094 34.8806 50.9493 34.9447C51.1891 35.0092 51.4451 34.9755 51.6601 34.8513L55.7415 32.4932C56.1897 32.2345 56.3432 31.661 56.0842 31.2128L55.1599 29.6103C55.5884 29.046 55.9414 28.4351 56.2154 27.7839H58.0629C58.5803 27.7839 58.9996 27.364 58.9996 26.8462V22.1307C58.9996 21.6129 58.58 21.1934 58.0629 21.1934ZM57.1258 25.9088H55.5661C55.1614 25.9088 54.8025 26.169 54.6762 26.5538C54.3913 27.4208 53.9368 28.2072 53.3252 28.8913C53.0553 29.1933 53.0099 29.6341 53.2124 29.9852L53.9932 31.3385L51.5348 32.7588L50.7548 31.407C50.5527 31.0563 50.1487 30.8753 49.7529 30.9578C48.8692 31.1413 47.935 31.1413 47.0514 30.9578C46.6555 30.8757 46.2516 31.0567 46.0494 31.407L45.2694 32.7588L42.811 31.3385L43.5918 29.9852C43.7943 29.6345 43.7489 29.1933 43.479 28.8913C42.8674 28.2072 42.413 27.4208 42.1281 26.5538C42.0017 26.169 41.6428 25.9088 41.2382 25.9088H39.6781V23.0685H41.2382C41.6428 23.0685 42.0017 22.8083 42.1281 22.4235C42.413 21.5565 42.8674 20.7701 43.479 20.0859C43.7489 19.784 43.7943 19.3432 43.5918 18.9921L42.811 17.6388L45.2694 16.2184L46.0494 17.5703C46.2516 17.9206 46.6555 18.1016 47.0514 18.0195C47.9354 17.836 48.8692 17.836 49.7529 18.0195C50.1491 18.1016 50.5527 17.9206 50.7548 17.5703L51.5348 16.2184L53.9932 17.6388L53.2124 18.9921C53.0099 19.3428 53.0553 19.784 53.3252 20.0859C53.9368 20.7701 54.3913 21.5565 54.6762 22.4235C54.8025 22.8083 55.1614 23.0685 55.5661 23.0685H57.1258V25.9088Z" fill="#000022"/>
<path d="M48.4019 20.1636C46.0187 20.1636 44.08 22.104 44.08 24.4885C44.08 26.8733 46.0187 28.8133 48.4019 28.8133C50.7852 28.8133 52.7239 26.8733 52.7239 24.4885C52.7239 22.104 50.7852 20.1636 48.4019 20.1636ZM48.4019 26.9385C47.0521 26.9385 45.9538 25.8396 45.9538 24.4885C45.9538 23.1377 47.0521 22.0388 48.4019 22.0388C49.7518 22.0388 50.8504 23.1377 50.8504 24.4885C50.8504 25.8396 49.7518 26.9385 48.4019 26.9385Z" fill="#000022"/>
</svg>
