<svg width="75" height="75" viewBox="0 0 75 75" fill="none" xmlns="http://www.w3.org/2000/svg">
<circle cx="37.5" cy="37.5" r="37.5" fill="#EB5757"/>
<path d="M18 15C18 13.8954 18.9438 13 20.1081 13H54.8919C56.0562 13 57 13.8954 57 15V63C57 64.1046 56.0562 65 54.8919 65H20.1081C18.9438 65 18 64.1046 18 63V15Z" fill="black" fill-opacity="0.37"/>
<path d="M19 13C19 11.8954 19.8954 11 21 11H54C55.1046 11 56 11.8954 56 13V61C56 62.1046 55.1046 63 54 63H21C19.8954 63 19 62.1046 19 61V13Z" fill="#FBFBFB"/>
<path fill-rule="evenodd" clip-rule="evenodd" d="M54 12H21C20.4477 12 20 12.4477 20 13V24.5C20 24.7761 19.7761 25 19.5 25C19.2239 25 19 24.7761 19 24.5V13C19 11.8954 19.8954 11 21 11H54C55.1046 11 56 11.8954 56 13V43.5C56 43.7761 55.7761 44 55.5 44C55.2239 44 55 43.7761 55 43.5V13C55 12.4477 54.5523 12 54 12Z" fill="#000022"/>
<path d="M19 27.5C19 27.2239 19.2239 27 19.5 27C19.7761 27 20 27.2239 20 27.5V33.5C20 33.7761 19.7761 34 19.5 34C19.2239 34 19 33.7761 19 33.5V27.5Z" fill="#000022"/>
<path d="M55 47.5C55 47.2239 55.2239 47 55.5 47C55.7761 47 56 47.2239 56 47.5V48.5C56 48.7761 55.7761 49 55.5 49C55.2239 49 55 48.7761 55 48.5V47.5Z" fill="#000022"/>
<path d="M55 61C55 61.5523 54.5523 62 54 62H43.5C43.2239 62 43 62.2239 43 62.5C43 62.7761 43.2239 63 43.5 63H54C55.1046 63 56 62.1046 56 61V51C56 50.7239 55.7761 50.5 55.5 50.5C55.2239 50.5 55 50.7239 55 51V61Z" fill="#000022"/>
<path fill-rule="evenodd" clip-rule="evenodd" d="M20 61C20 61.5523 20.4477 62 21 62H22.5C22.7761 62 23 62.2239 23 62.5C23 62.7761 22.7761 63 22.5 63H21C19.8954 63 19 62.1046 19 61V37.5C19 37.2239 19.2239 37 19.5 37C19.7761 37 20 37.2239 20 37.5V61ZM30 62.5C30 62.7761 30.2239 63 30.5 63H40.5C40.7761 63 41 62.7761 41 62.5C41 62.2239 40.7761 62 40.5 62H30.5C30.2239 62 30 62.2239 30 62.5Z" fill="#000022"/>
<path d="M28 62H28.5C28.7761 62 29 62.2239 29 62.5C29 62.7761 28.7761 63 28.5 63H27.5C27.2239 63 27 62.7761 27 62.5C27 62.2239 27.2239 62 27.5 62H28Z" fill="#000022"/>
<path d="M26 62.5C26 62.2239 25.7761 62 25.5 62C25.2239 62 25 62.2239 25 62.5C25 62.7761 25.2239 63 25.5 63C25.7761 63 26 62.7761 26 62.5Z" fill="#000022"/>
<rect x="24" y="16" width="20.25" height="2" rx="1" fill="#000022"/>
<rect x="46.1786" y="16" width="4.82143" height="2" rx="1" fill="#000022"/>
<rect x="24" y="20" width="16.3929" height="2" rx="1" fill="#000022"/>
<rect x="42.3214" y="20" width="8.67857" height="2" rx="1" fill="#000022"/>
<rect x="24" y="24" width="19.2857" height="2" rx="1" fill="#000022"/>
<rect x="45.2143" y="24" width="5.78571" height="2" rx="1" fill="#000022"/>
<rect x="24" y="28" width="7.71429" height="2" rx="1" fill="#000022"/>
<rect x="33.6429" y="28" width="7.71429" height="2" rx="1" fill="#000022"/>
<rect x="43.2857" y="28" width="7.71429" height="2" rx="1" fill="#000022"/>
<rect x="24" y="32" width="8.67857" height="2" rx="1" fill="#000022"/>
<rect x="34.6071" y="32" width="16.3929" height="2" rx="1" fill="#000022"/>
<rect x="24" y="36" width="12.5357" height="2" rx="1" fill="#000022"/>
<rect x="38.4643" y="36" width="12.5357" height="2" rx="1" fill="#000022"/>
<rect x="24" y="40" width="1.92857" height="2" rx="0.964286" fill="#000022"/>
<rect x="48.1071" y="40" width="2.89286" height="2" rx="1" fill="#000022"/>
<rect x="27.8571" y="40" width="18.3214" height="2" rx="1" fill="#000022"/>
<rect x="24" y="44" width="18.3214" height="2" rx="1" fill="#000022"/>
<rect x="44.25" y="44" width="6.75" height="2" rx="1" fill="#000022"/>
<rect x="24" y="48" width="20.25" height="2" rx="1" fill="#000022"/>
<rect x="46.1786" y="48" width="4.82143" height="2" rx="1" fill="#000022"/>
<rect x="24" y="52" width="11.5714" height="2" rx="1" fill="#000022"/>
<rect x="43.2857" y="52" width="7.71429" height="2" rx="1" fill="#000022"/>
<rect x="37.5" y="52" width="3.85714" height="2" rx="1" fill="#000022"/>
</svg>
