<svg width="75" height="75" viewBox="0 0 75 75" fill="none" xmlns="http://www.w3.org/2000/svg">
<circle cx="37.5" cy="37.5" r="37.5" fill="#FFD65A"/>
<path d="M58 35.5L39.5 14.5L26.5 26.5M26.5 26.5L39.5 41.5M26.5 26.5L19 45.5M39.5 41.5L29.5 63.5M39.5 41.5L55.5 63.5" stroke="#000022" stroke-width="2" stroke-linecap="round" stroke-linejoin="round" stroke-dasharray="13 5"/>
<path d="M46 14.5C46 18.0899 43.0899 21 39.5 21C35.9101 21 33 18.0899 33 14.5C33 10.9101 35.9101 8 39.5 8C43.0899 8 46 10.9101 46 14.5Z" fill="#27AE60"/>
<path d="M46 42.5C46 46.0899 43.0899 49 39.5 49C35.9101 49 33 46.0899 33 42.5C33 38.9101 35.9101 36 39.5 36C43.0899 36 46 38.9101 46 42.5Z" fill="black" fill-opacity="0.37"/>
<path d="M26.5 45C26.5 48.866 23.366 52 19.5 52C15.634 52 12.5 48.866 12.5 45C12.5 41.134 15.634 38 19.5 38C23.366 38 26.5 41.134 26.5 45Z" fill="black" fill-opacity="0.37"/>
<path d="M46 15.5C46 19.0899 43.0899 22 39.5 22C35.9101 22 33 19.0899 33 15.5C33 11.9101 35.9101 9 39.5 9C43.0899 9 46 11.9101 46 15.5Z" fill="black" fill-opacity="0.37"/>
<path d="M62 36.5C62 38.9853 59.9853 41 57.5 41C55.0147 41 53 38.9853 53 36.5C53 34.0147 55.0147 32 57.5 32C59.9853 32 62 34.0147 62 36.5Z" fill="black" fill-opacity="0.37"/>
<path d="M31 27.5C31 29.9853 28.9853 32 26.5 32C24.0147 32 22 29.9853 22 27.5C22 25.0147 24.0147 23 26.5 23C28.9853 23 31 25.0147 31 27.5Z" fill="black" fill-opacity="0.37"/>
<path d="M60 63.5C60 65.9853 57.9853 68 55.5 68C53.0147 68 51 65.9853 51 63.5C51 61.0147 53.0147 59 55.5 59C57.9853 59 60 61.0147 60 63.5Z" fill="black" fill-opacity="0.37"/>
<path d="M33 64.5C33 66.433 31.433 68 29.5 68C27.567 68 26 66.433 26 64.5C26 62.567 27.567 61 29.5 61C31.433 61 33 62.567 33 64.5Z" fill="black" fill-opacity="0.37"/>
<path fill-rule="evenodd" clip-rule="evenodd" d="M39.5 20C42.5376 20 45 17.5376 45 14.5C45 11.4624 42.5376 9 39.5 9C36.4624 9 34 11.4624 34 14.5C34 17.5376 36.4624 20 39.5 20ZM39.5 21C43.0899 21 46 18.0899 46 14.5C46 10.9101 43.0899 8 39.5 8C35.9101 8 33 10.9101 33 14.5C33 18.0899 35.9101 21 39.5 21Z" fill="#000022"/>
<path d="M62 35.5C62 37.9853 59.9853 40 57.5 40C55.0147 40 53 37.9853 53 35.5C53 33.0147 55.0147 31 57.5 31C59.9853 31 62 33.0147 62 35.5Z" fill="#F2994A"/>
<path fill-rule="evenodd" clip-rule="evenodd" d="M57.5 39C59.433 39 61 37.433 61 35.5C61 33.567 59.433 32 57.5 32C55.567 32 54 33.567 54 35.5C54 37.433 55.567 39 57.5 39ZM57.5 40C59.9853 40 62 37.9853 62 35.5C62 33.0147 59.9853 31 57.5 31C55.0147 31 53 33.0147 53 35.5C53 37.9853 55.0147 40 57.5 40Z" fill="#000022"/>
<path d="M31 26.5C31 28.9853 28.9853 31 26.5 31C24.0147 31 22 28.9853 22 26.5C22 24.0147 24.0147 22 26.5 22C28.9853 22 31 24.0147 31 26.5Z" fill="#2D9CDB"/>
<path fill-rule="evenodd" clip-rule="evenodd" d="M26.5 30C28.433 30 30 28.433 30 26.5C30 24.567 28.433 23 26.5 23C24.567 23 23 24.567 23 26.5C23 28.433 24.567 30 26.5 30ZM26.5 31C28.9853 31 31 28.9853 31 26.5C31 24.0147 28.9853 22 26.5 22C24.0147 22 22 24.0147 22 26.5C22 28.9853 24.0147 31 26.5 31Z" fill="#000022"/>
<path d="M46 41.5C46 45.0899 43.0899 48 39.5 48C35.9101 48 33 45.0899 33 41.5C33 37.9101 35.9101 35 39.5 35C43.0899 35 46 37.9101 46 41.5Z" fill="#EB5757"/>
<path fill-rule="evenodd" clip-rule="evenodd" d="M39.5 47C42.5376 47 45 44.5376 45 41.5C45 38.4624 42.5376 36 39.5 36C36.4624 36 34 38.4624 34 41.5C34 44.5376 36.4624 47 39.5 47ZM39.5 48C43.0899 48 46 45.0899 46 41.5C46 37.9101 43.0899 35 39.5 35C35.9101 35 33 37.9101 33 41.5C33 45.0899 35.9101 48 39.5 48Z" fill="#000022"/>
<path d="M60 62.5C60 64.9853 57.9853 67 55.5 67C53.0147 67 51 64.9853 51 62.5C51 60.0147 53.0147 58 55.5 58C57.9853 58 60 60.0147 60 62.5Z" fill="#D7926B"/>
<path fill-rule="evenodd" clip-rule="evenodd" d="M55.5 66C57.433 66 59 64.433 59 62.5C59 60.567 57.433 59 55.5 59C53.567 59 52 60.567 52 62.5C52 64.433 53.567 66 55.5 66ZM55.5 67C57.9853 67 60 64.9853 60 62.5C60 60.0147 57.9853 58 55.5 58C53.0147 58 51 60.0147 51 62.5C51 64.9853 53.0147 67 55.5 67Z" fill="#000022"/>
<path d="M33 63.5C33 65.433 31.433 67 29.5 67C27.567 67 26 65.433 26 63.5C26 61.567 27.567 60 29.5 60C31.433 60 33 61.567 33 63.5Z" fill="#6FCF97"/>
<path fill-rule="evenodd" clip-rule="evenodd" d="M29.5 66C30.8807 66 32 64.8807 32 63.5C32 62.1193 30.8807 61 29.5 61C28.1193 61 27 62.1193 27 63.5C27 64.8807 28.1193 66 29.5 66ZM29.5 67C31.433 67 33 65.433 33 63.5C33 61.567 31.433 60 29.5 60C27.567 60 26 61.567 26 63.5C26 65.433 27.567 67 29.5 67Z" fill="#000022"/>
<path d="M26 44.5C26 48.0899 23.0899 51 19.5 51C15.9101 51 13 48.0899 13 44.5C13 40.9101 15.9101 38 19.5 38C23.0899 38 26 40.9101 26 44.5Z" fill="#9B51E0"/>
<path fill-rule="evenodd" clip-rule="evenodd" d="M19.5 50C22.5376 50 25 47.5376 25 44.5C25 41.4624 22.5376 39 19.5 39C16.4624 39 14 41.4624 14 44.5C14 47.5376 16.4624 50 19.5 50ZM19.5 51C23.0899 51 26 48.0899 26 44.5C26 40.9101 23.0899 38 19.5 38C15.9101 38 13 40.9101 13 44.5C13 48.0899 15.9101 51 19.5 51Z" fill="#000022"/>
</svg>
