<svg width="75" height="75" viewBox="0 0 75 75" fill="none" xmlns="http://www.w3.org/2000/svg">
<circle cx="37.5" cy="37.5" r="37.5" fill="#F27C4A"/>
<path d="M8 21C8 19.8954 8.97683 19 10.1818 19H29.8182C31.0232 19 32 19.8954 32 21V25C32 26.1046 31.0232 27 29.8182 27H10.1818C8.97683 27 8 26.1046 8 25V21Z" fill="black" fill-opacity="0.37"/>
<path d="M9 20C9 18.8954 9.89543 18 11 18H29C30.1046 18 31 18.8954 31 20V24C31 25.1046 30.1046 26 29 26H11C9.89543 26 9 25.1046 9 24V20Z" fill="#9B51E0"/>
<path fill-rule="evenodd" clip-rule="evenodd" d="M11 19H12.5C12.7761 19 13 18.7761 13 18.5C13 18.2239 12.7761 18 12.5 18H11C9.89543 18 9 18.8954 9 20V24C9 25.1046 9.89543 26 11 26H14C14.2761 26 14.5 25.7761 14.5 25.5C14.5 25.2239 14.2761 25 14 25H11C10.4477 25 10 24.5523 10 24V20C10 19.4477 10.4477 19 11 19ZM20 18.5C20 18.7761 19.7761 19 19.5 19H17.5C17.2239 19 17 18.7761 17 18.5C17 18.2239 17.2239 18 17.5 18H19.5C19.7761 18 20 18.2239 20 18.5ZM21.5 18C21.2239 18 21 18.2239 21 18.5C21 18.7761 21.2239 19 21.5 19H29C29.5523 19 30 19.4477 30 20V20.5C30 20.7761 30.2239 21 30.5 21C30.7761 21 31 20.7761 31 20.5V20C31 18.8954 30.1046 18 29 18H21.5ZM30.5 22C30.2239 22 30 22.2239 30 22.5V24C30 24.5523 29.5523 25 29 25H19C18.7239 25 18.5 25.2239 18.5 25.5C18.5 25.7761 18.7239 26 19 26H29C30.1046 26 31 25.1046 31 24V22.5C31 22.2239 30.7761 22 30.5 22ZM16 25.5C16 25.2239 16.2239 25 16.5 25H17C17.2761 25 17.5 25.2239 17.5 25.5C17.5 25.7761 17.2761 26 17 26H16.5C16.2239 26 16 25.7761 16 25.5Z" fill="#000022"/>
<path d="M14.5 18C14.2239 18 14 18.2239 14 18.5C14 18.7761 14.2239 19 14.5 19H15C15.2761 19 15.5 18.7761 15.5 18.5C15.5 18.2239 15.2761 18 15 18H14.5Z" fill="#000022"/>
<path d="M35 21C35 19.8954 35.9532 19 37.129 19H65.871C67.0468 19 68 19.8954 68 21V25C68 26.1046 67.0468 27 65.871 27H37.129C35.9532 27 35 26.1046 35 25V21Z" fill="black" fill-opacity="0.37"/>
<path d="M36 20C36 18.8954 36.8954 18 38 18H65C66.1046 18 67 18.8954 67 20V24C67 25.1046 66.1046 26 65 26H38C36.8954 26 36 25.1046 36 24V20Z" fill="#D7926B"/>
<path d="M44 25C43.7239 25 43.5 25.2239 43.5 25.5C43.5 25.7761 43.7239 26 44 26C44.2761 26 44.5 25.7761 44.5 25.5C44.5 25.2239 44.2761 25 44 25Z" fill="#000022"/>
<path d="M46.5 26C46.2239 26 46 25.7761 46 25.5C46 25.2239 46.2239 25 46.5 25H50.5C50.7761 25 51 25.2239 51 25.5C51 25.7761 50.7761 26 50.5 26H46.5Z" fill="#000022"/>
<path fill-rule="evenodd" clip-rule="evenodd" d="M38 19H56.5C56.7761 19 57 18.7761 57 18.5C57 18.2239 56.7761 18 56.5 18H38C36.8954 18 36 18.8954 36 20V24C36 25.1046 36.8954 26 38 26H41C41.2761 26 41.5 25.7761 41.5 25.5C41.5 25.2239 41.2761 25 41 25H38C37.4477 25 37 24.5523 37 24V20C37 19.4477 37.4477 19 38 19ZM59 18.5C59 18.7761 58.7761 19 58.5 19C58.2239 19 58 18.7761 58 18.5C58 18.2239 58.2239 18 58.5 18C58.7761 18 59 18.2239 59 18.5ZM60.5 18C60.2239 18 60 18.2239 60 18.5C60 18.7761 60.2239 19 60.5 19H65C65.5523 19 66 19.4477 66 20V24C66 24.5523 65.5523 25 65 25H52.5C52.2239 25 52 25.2239 52 25.5C52 25.7761 52.2239 26 52.5 26H65C66.1046 26 67 25.1046 67 24V20C67 18.8954 66.1046 18 65 18H60.5Z" fill="#000022"/>
<path d="M3 37C3 35.8954 4.00078 35 5.23529 35H19.7647C20.9992 35 22 35.8954 22 37V41C22 42.1046 20.9992 43 19.7647 43H5.23529C4.00078 43 3 42.1046 3 41V37Z" fill="black" fill-opacity="0.37"/>
<path d="M4 36C4 34.8954 4.89543 34 6 34H19C20.1046 34 21 34.8954 21 36V40C21 41.1046 20.1046 42 19 42H6C4.89543 42 4 41.1046 4 40V36Z" fill="#6FCF97"/>
<path fill-rule="evenodd" clip-rule="evenodd" d="M19 35H14.5C14.2239 35 14 34.7761 14 34.5C14 34.2239 14.2239 34 14.5 34H19C19.9337 34 20.718 34.6399 20.9383 35.5051C21.0064 35.7727 20.7761 36 20.5 36C20.2239 36 20.0104 35.7627 19.8778 35.5205C19.708 35.2103 19.3785 35 19 35ZM20.5 37C20.2239 37 20 37.2239 20 37.5V40C20 40.5523 19.5523 41 19 41H9.5C9.22386 41 9 41.2239 9 41.5C9 41.7761 9.22386 42 9.5 42H19C20.1046 42 21 41.1046 21 40V37.5C21 37.2239 20.7761 37 20.5 37ZM11 34.5C11 34.2239 11.2239 34 11.5 34H12.5C12.7761 34 13 34.2239 13 34.5C13 34.7761 12.7761 35 12.5 35H11.5C11.2239 35 11 34.7761 11 34.5ZM9.5 35C9.77614 35 10 34.7761 10 34.5C10 34.2239 9.77614 34 9.5 34H6C4.89543 34 4 34.8954 4 36V40C4 41.1046 4.89543 42 6 42H7.5C7.77614 42 8 41.7761 8 41.5C8 41.2239 7.77614 41 7.5 41H6C5.44772 41 5 40.5523 5 40V36C5 35.4477 5.44772 35 6 35H9.5Z" fill="#000022"/>
<path d="M60 37C60 35.8954 61.0944 35 62.4444 35H68.5556C69.9056 35 71 35.8954 71 37V41C71 42.1046 69.9056 43 68.5556 43H62.4444C61.0944 43 60 42.1046 60 41V37Z" fill="black" fill-opacity="0.37"/>
<path d="M61 36C61 34.8954 61.8954 34 63 34H68C69.1046 34 70 34.8954 70 36V40C70 41.1046 69.1046 42 68 42H63C61.8954 42 61 41.1046 61 40V36Z" fill="#2D9CDB"/>
<path fill-rule="evenodd" clip-rule="evenodd" d="M68 35H63C62.4477 35 62 35.4477 62 36V38.5C62 38.7761 61.7761 39 61.5 39C61.2239 39 61 38.7761 61 38.5V36C61 34.8954 61.8954 34 63 34H68C69.1046 34 70 34.8954 70 36V36.5C70 36.7761 69.7761 37 69.5 37C69.2239 37 69 36.7761 69 36.5V36C69 35.4477 68.5523 35 68 35ZM69.5 39C69.2239 39 69 39.2239 69 39.5V40C69 40.5523 68.5523 41 68 41H63C62.6215 41 62.292 40.7897 62.1222 40.4795C61.9896 40.2373 61.7761 40 61.5 40C61.2239 40 60.9936 40.2273 61.0617 40.4949C61.282 41.3601 62.0663 42 63 42H68C69.1046 42 70 41.1046 70 40V39.5C70 39.2239 69.7761 39 69.5 39Z" fill="#000022"/>
<path d="M25 37C25 35.8954 25.9572 35 27.1379 35H53.8621C55.0428 35 56 35.8954 56 37V41C56 42.1046 55.0428 43 53.8621 43H27.1379C25.9572 43 25 42.1046 25 41V37Z" fill="black" fill-opacity="0.37"/>
<path d="M26 36C26 34.8954 26.8954 34 28 34H53C54.1046 34 55 34.8954 55 36V40C55 41.1046 54.1046 42 53 42H28C26.8954 42 26 41.1046 26 40V36Z" fill="#EB5757"/>
<path fill-rule="evenodd" clip-rule="evenodd" d="M53 35H28C27.4477 35 27 35.4477 27 36V40C27 40.5523 27.4477 41 28 41H53C53.5523 41 54 40.5523 54 40V36C54 35.4477 53.5523 35 53 35ZM28 34C26.8954 34 26 34.8954 26 36V40C26 41.1046 26.8954 42 28 42H53C54.1046 42 55 41.1046 55 40V36C55 34.8954 54.1046 34 53 34H28Z" fill="#000022"/>
<path d="M7 52C7 50.8954 7.9481 50 9.11765 50H40.8824C42.0519 50 43 50.8954 43 52V56C43 57.1046 42.0519 58 40.8824 58H9.11765C7.9481 58 7 57.1046 7 56V52Z" fill="black" fill-opacity="0.37"/>
<path d="M8 51C8 49.8954 8.89543 49 10 49H40C41.1046 49 42 49.8954 42 51V55C42 56.1046 41.1046 57 40 57H10C8.89543 57 8 56.1046 8 55V51Z" fill="#F2C94C"/>
<path fill-rule="evenodd" clip-rule="evenodd" d="M40 50H30C29.7239 50 29.5 49.7761 29.5 49.5C29.5 49.2239 29.7239 49 30 49H40C41.1046 49 42 49.8954 42 51V51.5C42 51.7761 41.7761 52 41.5 52C41.2239 52 41 51.7761 41 51.5V51C41 50.4477 40.5523 50 40 50ZM41.5 53C41.2239 53 41 53.2239 41 53.5V55C41 55.5523 40.5523 56 40 56H28C27.7239 56 27.5 56.2239 27.5 56.5C27.5 56.7761 27.7239 57 28 57H40C41.1046 57 42 56.1046 42 55V53.5C42 53.2239 41.7761 53 41.5 53ZM25.5 57C25.7761 57 26 56.7761 26 56.5C26 56.2239 25.7761 56 25.5 56H23.5C23.2239 56 23 56.2239 23 56.5C23 56.7761 23.2239 57 23.5 57H25.5ZM10 57H21.5C21.7761 57 22 56.7761 22 56.5C22 56.2239 21.7761 56 21.5 56H10C9.44772 56 9 55.5523 9 55V51C9 50.4477 9.44772 50 10 50H13.5C13.7761 50 14 49.7761 14 49.5C14 49.2239 13.7761 49 13.5 49H10C8.89543 49 8 49.8954 8 51V55C8 56.1046 8.89543 57 10 57ZM28 49C28.2761 49 28.5 49.2239 28.5 49.5C28.5 49.7761 28.2761 50 28 50H20.5C20.2239 50 20 49.7761 20 49.5C20 49.2239 20.2239 49 20.5 49H28ZM18.5 50C18.7761 50 19 49.7761 19 49.5C19 49.2239 18.7761 49 18.5 49H15.5C15.2239 49 15 49.2239 15 49.5C15 49.7761 15.2239 50 15.5 50H18.5Z" fill="#000022"/>
<path d="M45 52C45 50.8954 45.985 50 47.2 50H64.8C66.015 50 67 50.8954 67 52V56C67 57.1046 66.015 58 64.8 58H47.2C45.985 58 45 57.1046 45 56V52Z" fill="black" fill-opacity="0.37"/>
<path d="M46 51C46 49.8954 46.8954 49 48 49H64C65.1046 49 66 49.8954 66 51V55C66 56.1046 65.1046 57 64 57H48C46.8954 57 46 56.1046 46 55V51Z" fill="#4AE8F2"/>
<path fill-rule="evenodd" clip-rule="evenodd" d="M64 50H62C61.7239 50 61.5 49.7761 61.5 49.5C61.5 49.2239 61.7239 49 62 49H64C65.1046 49 66 49.8954 66 51V55C66 56.1046 65.1046 57 64 57H55.5C55.2239 57 55 56.7761 55 56.5C55 56.2239 55.2239 56 55.5 56H64C64.5523 56 65 55.5523 65 55V51C65 50.4477 64.5523 50 64 50ZM60 49.5C60 49.2239 59.7761 49 59.5 49H48C46.8954 49 46 49.8954 46 51V51.5C46 51.7761 46.2239 52 46.5 52C46.7761 52 47 51.7761 47 51.5V51C47 50.4477 47.4477 50 48 50H59.5C59.7761 50 60 49.7761 60 49.5ZM48 56H53.5C53.7761 56 54 56.2239 54 56.5C54 56.7761 53.7761 57 53.5 57H48C47.0663 57 46.282 56.3601 46.0617 55.4949C45.9936 55.2273 46.2239 55 46.5 55C46.7761 55 46.9896 55.2373 47.1222 55.4795C47.292 55.7897 47.6215 56 48 56ZM46.5 54C46.7761 54 47 53.7761 47 53.5C47 53.2239 46.7761 53 46.5 53C46.2239 53 46 53.2239 46 53.5C46 53.7761 46.2239 54 46.5 54Z" fill="#000022"/>
</svg>
